<svg width="50" height="50" fill="none" xmlns="http://www.w3.org/2000/svg"><path d="M25.2 48c.5 0 1 .3 1 .9 0 .5-.5.9-1 .9a1 1 0 0 1-1-1c0-.5.4-.9 1-.9Zm-1-45c.4 0 .8.4.8.8l1.2 8.3a3.4 3.4 0 0 0 5.6 2L43.2 3.8c.2-.3.7-.2 1 0 .2.3.2.7 0 1L34.1 16c-1.8 2.1-.4 5.4 2.4 5.6l8.7.8c.4 0 .7.5.7.9s-.3.6-.7.7l-9.1 1.4a3.4 3.4 0 0 0-2.2 5.6l3.2 3.8c.3.3.3.7 0 1-.3.2-.7.2-1 0l-4-3a3.4 3.4 0 0 0-5.4 2.4L26 45.7c0 .5-.4.8-.8.8a.8.8 0 0 1-.7-.7l-1.4-10a3.4 3.4 0 0 0-5.7-2.1l-12 11c-.3.2-.7.2-1 0a.6.6 0 0 1 0-.9L15 31.7c1.8-2.1.5-5.4-2.3-5.6L4 25.2a.8.8 0 0 1-.7-.8c0-.4.3-.6.6-.7l9.2-1.4a3.4 3.4 0 0 0 2.1-5.6L13 14.1a.9.9 0 0 1 .2-1.2 1 1 0 0 1 1 0l2.8 2c2.1 1.6 5.2.2 5.4-2.4l.8-8.6c0-.5.5-1 1-1ZM1 23.4c.5 0 .9.5.9 1s-.4 1-1 1a1 1 0 0 1-.9-1c0-.5.4-1 1-1Zm47.6-1c.6 0 1 .5 1 1s-.4 1-1 1a1 1 0 0 1-1-1c0-.5.5-1 1-1ZM24 0c.5 0 1 .4 1 1 0 .5-.5.9-1 .9a1 1 0 0 1-1-1c0-.5.5-.9 1-.9Z" fill="url(#a)"/><path d="M24.6 32.8c5 0 9-4 9-8.9 0-5-4-8.9-9-8.9s-9 4-9 8.9 4 8.9 9 8.9Z" fill="url(#b)"/><defs><radialGradient id="b" cx="0" cy="0" r="1" gradientUnits="userSpaceOnUse" gradientTransform="matrix(4.99219 12.06388 -12.18114 5.04071 22.5 20.6)"><stop stop-color="#FFC10B"/><stop offset="1" stop-color="#FB3F2E"/></radialGradient><linearGradient id="a" x1="6.5" y1="7.9" x2="34.9" y2="33.7" gradientUnits="userSpaceOnUse"><stop stop-color="#FFC10B"/><stop offset="1" stop-color="#FB3F2E"/></linearGradient></defs></svg>
