<svg width="530" height="530" xmlns="http://www.w3.org/2000/svg"><path fill="none" d="M-1-1h532v532H-1z"/><g><path fill="#00FFA3" d="M88.9 373a17 17 0 0 1 12-5h416.5a8.5 8.5 0 0 1 6 14.5l-82.3 82.3a17 17 0 0 1-12 5H12.6a8.5 8.5 0 0 1-6-14.6L88.9 373zM88.9 66a17 17 0 0 1 12-5h416.5a8.5 8.5 0 0 1 6 14.5l-82.3 82.3a17 17 0 0 1-12 5H12.6a8.5 8.5 0 0 1-6-14.6L88.9 66zM441.1 219.1a17 17 0 0 0-12-5H12.6a8.5 8.5 0 0 0-6 14.6l82.3 82.2a17 17 0 0 0 12 5h416.5a8.5 8.5 0 0 0 6-14.6l-82.3-82.2z"/></g></svg>
